#!OML:ASF F:\VICON\USERDATA\INSTALL\rory3\rory3.ASF
:FULLY-SPECIFIED
:DEGREES
125
root 4.15579 18.0188 2.05958 -2.99369 -3.41369 -6.36357
lowerback 11.1575 0.813593 5.23424
upperback 0.181993 1.88549 2.11036
thorax -5.98253 0.80401 -1.03165
lowerneck -15.3939 -3.61011 -1.58744
upperneck 23.0542 -4.66147 0.00214919
head 9.90095 -2.29822 -0.33873
rclavicle 2.43263e-014 1.58034e-014
rhumerus -26.678 -12.0204 -80.7998
rradius 28.155
rwrist 0.595092
rhand -17.7187 15.5119
rfingers 7.12502
rthumb 8.54181 -14.2954
lclavicle 2.43263e-014 1.58034e-014
lhumerus -36.2299 -1.56965 85.4194
lradius 29.2887
lwrist 6.23582
lhand -24.9361 31.6702
lfingers 7.12502
lthumb 1.5733 61.6441
rfemur -5.0535 9.06198 33.4722
rtibia 31.7164
rfoot -18.5219 -7.03772
rtoes 9.67794
lfemur -26.9133 5.01767 -12.5848
ltibia 57.6878
lfoot -9.26832 -3.14479
ltoes -8.33798
126
root 4.15998 17.9889 2.23152 -2.93638 -3.57871 -6.59397
lowerback 11.1498 0.920402 5.58069
upperback 0.187724 2.06867 2.07645
thorax -5.94932 0.884163 -1.28948
lowerneck -15.5014 -3.65429 -1.60079
upperneck 23.1314 -4.75436 0.140907
head 9.95385 -2.32481 -0.303658
rclavicle 3.08349e-015 1.82136e-014
rhumerus -26.422 -11.8408 -80.9016
rradius 28.5155
rwrist 0.400449
rhand -18.3337 20.2456
rfingers 7.12502
rthumb 7.9483 -9.58497
lclavicle 3.08349e-015 1.82136e-014
lhumerus -36.4 -1.59597 85.4794
lradius 29.3145
lwrist 6.43246
lhand -25.2127 29.5112
lfingers 7.12502
lthumb 1.30611 59.4869
rfemur -4.45252 9.11902 33.792
rtibia 31.6645
rfoot -19.0713 -7.1228
rtoes 9.23586
lfemur -27.491 4.75114 -12.2796
ltibia 55.8434
lfoot -9.41733 -2.56298
ltoes -7.10996
127
root 4.15878 18.0219 2.40424 -2.82669 -3.67444 -6.54757
lowerback 11.217 0.964913 5.54145
upperback 0.152208 2.12687 2.03085
thorax -6.02083 0.910674 -1.3266
lowerneck -15.7629 -3.60911 -1.67073
upperneck 23.2074 -4.69658 0.250137
head 10.0351 -2.28921 -0.252778
rclavicle -1.25626e-014 1.22625e-014
rhumerus -26.1853 -11.0225 -81.1418
rradius 29.2516
rwrist -0.266189
rhand -18.7211 22.1076
rfingers 7.12502
rthumb 7.57436 -7.73673
lclavicle -1.25626e-014 1.22625e-014
lhumerus -36.6109 -1.66064 85.639
lradius 29.3169
lwrist 6.90824
lhand -25.8571 25.8462
lfingers 7.12502
lthumb 0.683797 55.8248
rfemur -3.70311 9.05932 33.7574
rtibia 31.3175
rfoot -19.5237 -7.07868
rtoes 8.81981
lfemur -27.7026 4.23932 -12.286
ltibia 53.4478
lfoot -9.26782 -1.64068
ltoes -6.7406
128
root 4.16275 17.9703 2.56823 -2.76506 -3.78876 -6.46038
lowerback 11.3195 1.02372 5.39071
upperback 0.197203 2.18942 2.01159
thorax -6.03138 0.945741 -1.27459
lowerneck -15.8628 -3.54628 -1.72804
upperneck 22.9945 -4.61849 0.37499
head 9.98198 -2.24379 -0.188751
rclavicle -5.24139e-016 1.01256e-014
rhumerus -25.7572 -10.3928 -81.2913
rradius 29.8436
rwrist -0.79834
rhand -18.5707 21.5749
rfingers 7.12502
rthumb 7.71955 -8.26423
lclavicle -5.24139e-016 1.01256e-014
lhumerus -36.8028 -1.90185 85.9456
lradius 29.3668
lwrist 8.0203
lhand -27.5462 21.6535
lfingers 7.12502
lthumb -0.947591 51.6311
rfemur -3.03915 8.93223 33.6841
rtibia 31.107
rfoot -19.8864 -6.89313
rtoes 9.68333
lfemur -28.032 3.91677 -12.3143
ltibia 51.1487
lfoot -9.20255 -0.927773
ltoes -6.68615
129
root 4.16779 17.9843 2.7401 -2.64502 -3.92789 -6.53102
lowerback 11.263 1.10666 5.49499
upperback 0.223975 2.3086 2.03164
thorax -5.96105 1.00365 -1.32872
lowerneck -15.9683 -3.5545 -1.59902
upperneck 22.8076 -4.59351 0.118859
head 9.9245 -2.25121 -0.295874
rclavicle 6.96523e-016 8.4235e-015
rhumerus -25.2411 -10.1387 -81.2823
rradius 29.9395
rwrist -0.80571
rhand -18.5435 21.9174
rfingers 7.12502
rthumb 7.74577 -7.92069
lclavicle 6.96523e-016 8.4235e-015
lhumerus -37.0226 -2.0665 86.2754
lradius 29.3895
lwrist 8.92504
lhand -28.6845 19.9989
lfingers 7.12502
lthumb -2.04701 49.9689
rfemur -2.25256 8.90509 33.7776
rtibia 30.6581
rfoot -19.9237 -7.04559
rtoes 10.1475
lfemur -28.0377 3.36554 -12.1091
ltibia 48.3929
lfoot -9.23397 -0.261359
ltoes -5.17441
